<mxfile host="app.diagrams.net" modified="2023-01-28T08:18:18.268Z" agent="5.0 (Windows NT 10.0; Win64; x64) AppleWebKit/537.36 (KHTML, like Gecko) Chrome/109.0.0.0 Safari/537.36" etag="G_axcD1Yt7xpnlZUgcZK" version="20.2.7" type="github">
  <diagram id="wU-PUiD_2lOh6VojfZ_S" name="第 1 页">
    <mxGraphModel dx="1038" dy="579" grid="1" gridSize="10" guides="1" tooltips="1" connect="1" arrows="1" fold="1" page="1" pageScale="1" pageWidth="827" pageHeight="1169" math="0" shadow="0">
      <root>
        <mxCell id="0" />
        <mxCell id="1" parent="0" />
        <mxCell id="KJv1CAkhH0yULdMLxzy6-1" value="html文档" style="ellipse;whiteSpace=wrap;html=1;" vertex="1" parent="1">
          <mxGeometry x="380" y="20" width="120" height="80" as="geometry" />
        </mxCell>
        <mxCell id="KJv1CAkhH0yULdMLxzy6-5" value="Error" style="html=1;verticalAlign=bottom;endArrow=block;rounded=0;" edge="1" parent="1" source="KJv1CAkhH0yULdMLxzy6-1" target="KJv1CAkhH0yULdMLxzy6-6">
          <mxGeometry width="80" relative="1" as="geometry">
            <mxPoint x="396" y="250" as="sourcePoint" />
            <mxPoint x="440" y="190" as="targetPoint" />
          </mxGeometry>
        </mxCell>
        <mxCell id="KJv1CAkhH0yULdMLxzy6-6" value="错误类型？" style="rhombus;whiteSpace=wrap;html=1;" vertex="1" parent="1">
          <mxGeometry x="400" y="160" width="80" height="80" as="geometry" />
        </mxCell>
        <mxCell id="KJv1CAkhH0yULdMLxzy6-7" value="LOG_TYPE.ERROR" style="rounded=1;whiteSpace=wrap;html=1;" vertex="1" parent="1">
          <mxGeometry x="150" y="280" width="120" height="60" as="geometry" />
        </mxCell>
        <mxCell id="KJv1CAkhH0yULdMLxzy6-8" value="LOG_TYPE.AJAX_ERROR" style="rounded=1;whiteSpace=wrap;html=1;" vertex="1" parent="1">
          <mxGeometry x="280" y="280" width="166" height="60" as="geometry" />
        </mxCell>
        <mxCell id="KJv1CAkhH0yULdMLxzy6-9" value="LOG_TYPE.SCRIPT_ERROR" style="rounded=1;whiteSpace=wrap;html=1;" vertex="1" parent="1">
          <mxGeometry x="550" y="280" width="166" height="60" as="geometry" />
        </mxCell>
        <mxCell id="KJv1CAkhH0yULdMLxzy6-10" value="..." style="rounded=1;whiteSpace=wrap;html=1;" vertex="1" parent="1">
          <mxGeometry x="460" y="280" width="70" height="60" as="geometry" />
        </mxCell>
        <mxCell id="KJv1CAkhH0yULdMLxzy6-15" value="" style="edgeStyle=elbowEdgeStyle;elbow=vertical;endArrow=classic;html=1;rounded=0;" edge="1" parent="1" source="KJv1CAkhH0yULdMLxzy6-6" target="KJv1CAkhH0yULdMLxzy6-7">
          <mxGeometry width="50" height="50" relative="1" as="geometry">
            <mxPoint x="560" y="320" as="sourcePoint" />
            <mxPoint x="610" y="270" as="targetPoint" />
          </mxGeometry>
        </mxCell>
        <mxCell id="KJv1CAkhH0yULdMLxzy6-17" value="" style="edgeStyle=elbowEdgeStyle;elbow=vertical;endArrow=classic;html=1;rounded=0;" edge="1" parent="1" source="KJv1CAkhH0yULdMLxzy6-6" target="KJv1CAkhH0yULdMLxzy6-8">
          <mxGeometry width="50" height="50" relative="1" as="geometry">
            <mxPoint x="560" y="320" as="sourcePoint" />
            <mxPoint x="610" y="270" as="targetPoint" />
          </mxGeometry>
        </mxCell>
        <mxCell id="KJv1CAkhH0yULdMLxzy6-18" value="" style="edgeStyle=elbowEdgeStyle;elbow=vertical;endArrow=classic;html=1;rounded=0;" edge="1" parent="1" source="KJv1CAkhH0yULdMLxzy6-6" target="KJv1CAkhH0yULdMLxzy6-10">
          <mxGeometry width="50" height="50" relative="1" as="geometry">
            <mxPoint x="560" y="320" as="sourcePoint" />
            <mxPoint x="610" y="270" as="targetPoint" />
          </mxGeometry>
        </mxCell>
        <mxCell id="KJv1CAkhH0yULdMLxzy6-19" value="" style="edgeStyle=elbowEdgeStyle;elbow=vertical;endArrow=classic;html=1;rounded=0;" edge="1" parent="1" source="KJv1CAkhH0yULdMLxzy6-6" target="KJv1CAkhH0yULdMLxzy6-9">
          <mxGeometry width="50" height="50" relative="1" as="geometry">
            <mxPoint x="560" y="320" as="sourcePoint" />
            <mxPoint x="610" y="270" as="targetPoint" />
          </mxGeometry>
        </mxCell>
        <mxCell id="KJv1CAkhH0yULdMLxzy6-20" value="" style="edgeStyle=elbowEdgeStyle;elbow=vertical;endArrow=classic;html=1;rounded=0;" edge="1" parent="1" source="KJv1CAkhH0yULdMLxzy6-7" target="KJv1CAkhH0yULdMLxzy6-21">
          <mxGeometry width="50" height="50" relative="1" as="geometry">
            <mxPoint x="560" y="420" as="sourcePoint" />
            <mxPoint x="610" y="370" as="targetPoint" />
          </mxGeometry>
        </mxCell>
        <mxCell id="KJv1CAkhH0yULdMLxzy6-21" value="识别标记为不同的错误日志" style="rounded=1;whiteSpace=wrap;html=1;" vertex="1" parent="1">
          <mxGeometry x="380" y="390" width="120" height="60" as="geometry" />
        </mxCell>
        <mxCell id="KJv1CAkhH0yULdMLxzy6-22" value="" style="edgeStyle=elbowEdgeStyle;elbow=vertical;endArrow=classic;html=1;rounded=0;" edge="1" parent="1" source="KJv1CAkhH0yULdMLxzy6-8" target="KJv1CAkhH0yULdMLxzy6-21">
          <mxGeometry width="50" height="50" relative="1" as="geometry">
            <mxPoint x="560" y="410" as="sourcePoint" />
            <mxPoint x="610" y="360" as="targetPoint" />
          </mxGeometry>
        </mxCell>
        <mxCell id="KJv1CAkhH0yULdMLxzy6-23" value="" style="edgeStyle=elbowEdgeStyle;elbow=vertical;endArrow=classic;html=1;rounded=0;" edge="1" parent="1" source="KJv1CAkhH0yULdMLxzy6-10" target="KJv1CAkhH0yULdMLxzy6-21">
          <mxGeometry width="50" height="50" relative="1" as="geometry">
            <mxPoint x="600" y="510" as="sourcePoint" />
            <mxPoint x="650" y="460" as="targetPoint" />
          </mxGeometry>
        </mxCell>
        <mxCell id="KJv1CAkhH0yULdMLxzy6-24" value="" style="edgeStyle=elbowEdgeStyle;elbow=vertical;endArrow=classic;html=1;rounded=0;" edge="1" parent="1" source="KJv1CAkhH0yULdMLxzy6-9" target="KJv1CAkhH0yULdMLxzy6-21">
          <mxGeometry width="50" height="50" relative="1" as="geometry">
            <mxPoint x="560" y="410" as="sourcePoint" />
            <mxPoint x="610" y="360" as="targetPoint" />
          </mxGeometry>
        </mxCell>
        <mxCell id="KJv1CAkhH0yULdMLxzy6-26" value="节流管道处理函数" style="rounded=1;whiteSpace=wrap;html=1;" vertex="1" parent="1">
          <mxGeometry x="380" y="480" width="120" height="60" as="geometry" />
        </mxCell>
        <mxCell id="KJv1CAkhH0yULdMLxzy6-27" value="" style="endArrow=classic;html=1;rounded=0;" edge="1" parent="1" source="KJv1CAkhH0yULdMLxzy6-21" target="KJv1CAkhH0yULdMLxzy6-26">
          <mxGeometry width="50" height="50" relative="1" as="geometry">
            <mxPoint x="560" y="620" as="sourcePoint" />
            <mxPoint x="610" y="570" as="targetPoint" />
          </mxGeometry>
        </mxCell>
        <mxCell id="KJv1CAkhH0yULdMLxzy6-28" value="判断是否为白名单上报类型" style="rounded=1;whiteSpace=wrap;html=1;" vertex="1" parent="1">
          <mxGeometry x="380" y="570" width="120" height="60" as="geometry" />
        </mxCell>
        <mxCell id="KJv1CAkhH0yULdMLxzy6-29" value="处理自定义上报拦截以及回调钩子" style="rounded=1;whiteSpace=wrap;html=1;" vertex="1" parent="1">
          <mxGeometry x="380" y="660" width="120" height="60" as="geometry" />
        </mxCell>
        <mxCell id="KJv1CAkhH0yULdMLxzy6-30" value="normalize log" style="rounded=1;whiteSpace=wrap;html=1;" vertex="1" parent="1">
          <mxGeometry x="380" y="750" width="120" height="60" as="geometry" />
        </mxCell>
        <mxCell id="KJv1CAkhH0yULdMLxzy6-31" value="send" style="rounded=1;whiteSpace=wrap;html=1;" vertex="1" parent="1">
          <mxGeometry x="380" y="840" width="120" height="60" as="geometry" />
        </mxCell>
        <mxCell id="KJv1CAkhH0yULdMLxzy6-32" value="" style="endArrow=classic;html=1;rounded=0;" edge="1" parent="1" source="KJv1CAkhH0yULdMLxzy6-26" target="KJv1CAkhH0yULdMLxzy6-28">
          <mxGeometry width="50" height="50" relative="1" as="geometry">
            <mxPoint x="560" y="520" as="sourcePoint" />
            <mxPoint x="610" y="470" as="targetPoint" />
          </mxGeometry>
        </mxCell>
        <mxCell id="KJv1CAkhH0yULdMLxzy6-33" value="" style="endArrow=classic;html=1;rounded=0;" edge="1" parent="1" source="KJv1CAkhH0yULdMLxzy6-29" target="KJv1CAkhH0yULdMLxzy6-30">
          <mxGeometry width="50" height="50" relative="1" as="geometry">
            <mxPoint x="560" y="520" as="sourcePoint" />
            <mxPoint x="610" y="470" as="targetPoint" />
          </mxGeometry>
        </mxCell>
        <mxCell id="KJv1CAkhH0yULdMLxzy6-34" value="" style="endArrow=classic;html=1;rounded=0;" edge="1" parent="1" source="KJv1CAkhH0yULdMLxzy6-28" target="KJv1CAkhH0yULdMLxzy6-29">
          <mxGeometry width="50" height="50" relative="1" as="geometry">
            <mxPoint x="560" y="520" as="sourcePoint" />
            <mxPoint x="610" y="470" as="targetPoint" />
          </mxGeometry>
        </mxCell>
        <mxCell id="KJv1CAkhH0yULdMLxzy6-35" value="" style="endArrow=classic;html=1;rounded=0;" edge="1" parent="1" source="KJv1CAkhH0yULdMLxzy6-30" target="KJv1CAkhH0yULdMLxzy6-31">
          <mxGeometry width="50" height="50" relative="1" as="geometry">
            <mxPoint x="560" y="720" as="sourcePoint" />
            <mxPoint x="610" y="670" as="targetPoint" />
          </mxGeometry>
        </mxCell>
      </root>
    </mxGraphModel>
  </diagram>
</mxfile>
